<svg width="100" height="100" viewBox="0 0 100 100" fill="none" xmlns="http://www.w3.org/2000/svg">
<rect width="100" height="100" rx="16" fill="#DFE8FA"/>
<path d="M35.2015 66.1118C33.5996 66.1118 32.1068 65.7842 30.7233 65.1288C29.3398 64.4589 28.1457 63.5414 27.1408 62.3764C26.1505 61.2113 25.4369 59.857 25 58.3133L30.068 56.9589C30.2719 57.8035 30.6432 58.5317 31.1821 59.1434C31.7355 59.755 32.3763 60.2283 33.1044 60.5633C33.8471 60.8982 34.6117 61.0657 35.3981 61.0657C36.4175 61.0657 37.3496 60.8181 38.1943 60.323C39.0389 59.8278 39.7088 59.1652 40.204 58.3351C40.6991 57.4904 40.9467 56.5584 40.9467 55.539C40.9467 54.5195 40.6918 53.5948 40.1821 52.7647C39.687 51.92 39.0171 51.2574 38.1724 50.7768C37.3277 50.2817 36.403 50.0341 35.3981 50.0341C34.1894 50.0341 33.1845 50.2525 32.3835 50.6894C31.5971 51.1263 30.9928 51.5923 30.5704 52.0875L26.0704 50.6457L27.0316 34H44.1142V38.9369H29.8495L31.8156 37.0801L31.1165 48.6579L30.1554 47.4782C30.9709 46.7355 31.9175 46.1821 32.9952 45.818C34.0729 45.454 35.1141 45.2719 36.119 45.2719C38.085 45.2719 39.8253 45.7234 41.3399 46.6263C42.869 47.5146 44.0632 48.7307 44.9225 50.2744C45.7962 51.8181 46.2331 53.5729 46.2331 55.539C46.2331 57.505 45.7234 59.289 44.704 60.8909C43.6846 62.4783 42.3375 63.7453 40.6627 64.6919C39.0025 65.6385 37.1821 66.1118 35.2015 66.1118Z" fill="#4F79E2"/>
<path d="M51.4732 65.4565V34H64.4708C64.7766 34 65.1698 34.0146 65.6504 34.0437C66.131 34.0583 66.5752 34.1019 66.983 34.1748C68.8034 34.4515 70.3034 35.0558 71.483 35.9879C72.6772 36.9199 73.5582 38.0995 74.1262 39.5267C74.7087 40.9394 75 42.5122 75 44.2452C75 45.9637 74.7087 47.5365 74.1262 48.9637C73.5437 50.3763 72.6553 51.5487 71.4611 52.4807C70.2815 53.4127 68.7888 54.0171 66.983 54.2938C66.5752 54.3521 66.1237 54.3958 65.6286 54.4249C65.148 54.454 64.7621 54.4686 64.4708 54.4686H56.7378V65.4565H51.4732ZM56.7378 49.5535H64.2524C64.5436 49.5535 64.8713 49.5389 65.2354 49.5098C65.5995 49.4807 65.9344 49.4224 66.2402 49.335C67.114 49.1166 67.7985 48.7307 68.2937 48.1773C68.8034 47.6239 69.1602 46.9977 69.364 46.2986C69.5825 45.5996 69.6917 44.9151 69.6917 44.2452C69.6917 43.5753 69.5825 42.8908 69.364 42.1918C69.1602 41.4782 68.8034 40.8447 68.2937 40.2913C67.7985 39.7379 67.114 39.352 66.2402 39.1335C65.9344 39.0461 65.5995 38.9952 65.2354 38.9806C64.8713 38.9515 64.5436 38.9369 64.2524 38.9369H56.7378V49.5535Z" fill="#9EBEF2"/>
</svg>
